# xmcd
#
# Track frame offsets:
#	182
#	10057
#	22107
#	33842
#	44800
#	55860
#	66930
#	79610
#	90295
#	101630
#	113255
#	128315
#
# Disc length: 1906 seconds
#
# Revision: 0
# Processed by: cddbd v1.5.2PL0 Copyright (c) Steve Scherf et al.
# Submitted via: audiograbber 1.83.01
#
DISCID=8607700c
DTITLE=Wanda Jackson - Greatest Hits
DYEAR=1990
DGENRE=Pop
TTITLE0=Let's Have A Party
TTITLE1=Right Or Wrong
TTITLE2=In The Middle Of A Heartache
TTITLE3=Tears Will Be The Chaser For Your Wine
TTITLE4=Fancy Satin Pillows
TTITLE5=The Box It Came In
TTITLE6=A Woman Lives For Love
TTITLE7=Both Sides Of The Line
TTITLE8=I Gotta Know
TTITLE9=If I Cried Everytime You Hurt Me
TTITLE10=Back Then
TTITLE11=I Forgot More Than You'll Ever Know
EXTD=CURB Records. D2-77398. Printed in USA.
EXTT0=
EXTT1=
EXTT2=
EXTT3=
EXTT4=
EXTT5=
EXTT6=
EXTT7=
EXTT8=
EXTT9=
EXTT10=
EXTT11=
PLAYORDER=
